<svg xmlns="http://www.w3.org/2000/svg" xmlns:xlink="http://www.w3.org/1999/xlink" width="100" zoomAndPan="magnify" viewBox="0 0 75 32.249999" height="43" preserveAspectRatio="xMidYMid meet" version="1.2"><defs><clipPath id="ae066982ae"><path d="M 0.851562 0 L 74.148438 0 L 74.148438 31.515625 L 0.851562 31.515625 Z M 0.851562 0 "/></clipPath><clipPath id="08cbbba890"><path d="M 4.550781 15.675781 L 8.9375 15.675781 L 8.9375 30.152344 L 4.550781 30.152344 Z M 4.550781 15.675781 "/></clipPath><clipPath id="74fe8e1bd5"><path d="M 2.492188 13 L 5 13 L 5 17 L 2.492188 17 Z M 2.492188 13 "/></clipPath><clipPath id="3f0fb55694"><path d="M 2.492188 2.140625 L 13 2.140625 L 13 26 L 2.492188 26 Z M 2.492188 2.140625 "/></clipPath><clipPath id="afd6b28b83"><path d="M 9.273438 9.261719 L 16.363281 9.261719 L 16.363281 18.710938 L 9.273438 18.710938 Z M 9.273438 9.261719 "/></clipPath></defs><g id="70f678a464"><g clip-rule="nonzero" clip-path="url(#ae066982ae)"><path style=" stroke:none;fill-rule:nonzero;fill:#ffffff;fill-opacity:1;" d="M 0.851562 0 L 74.148438 0 L 74.148438 31.515625 L 0.851562 31.515625 Z M 0.851562 0 "/><path style=" stroke:none;fill-rule:nonzero;fill:#ffffff;fill-opacity:1;" d="M 0.851562 0 L 74.148438 0 L 74.148438 31.515625 L 0.851562 31.515625 Z M 0.851562 0 "/></g><g style="fill:#000000;fill-opacity:1;"><g transform="translate(20.751827, 13.618244)"><path style="stroke:none" d="M 1.421875 -0.390625 C 1.421875 -0.296875 1.472656 -0.238281 1.578125 -0.21875 L 1.828125 -0.1875 C 1.898438 -0.164062 1.9375 -0.128906 1.9375 -0.078125 C 1.9375 -0.0234375 1.894531 0 1.8125 0 L 0.515625 0 C 0.429688 0 0.390625 -0.0234375 0.390625 -0.078125 C 0.390625 -0.128906 0.425781 -0.164062 0.5 -0.1875 L 0.75 -0.21875 C 0.851562 -0.238281 0.90625 -0.296875 0.90625 -0.390625 L 0.90625 -4.1875 C 0.90625 -4.28125 0.851562 -4.332031 0.75 -4.34375 L 0.5 -4.390625 C 0.425781 -4.398438 0.390625 -4.429688 0.390625 -4.484375 C 0.390625 -4.546875 0.429688 -4.578125 0.515625 -4.578125 L 1.8125 -4.578125 C 1.894531 -4.578125 1.9375 -4.546875 1.9375 -4.484375 C 1.9375 -4.429688 1.898438 -4.398438 1.828125 -4.390625 L 1.578125 -4.34375 C 1.472656 -4.332031 1.421875 -4.28125 1.421875 -4.1875 Z M 1.421875 -0.390625 "/></g></g><g style="fill:#000000;fill-opacity:1;"><g transform="translate(23.407594, 13.618244)"><path style="stroke:none" d="M 1.765625 -0.078125 C 1.765625 -0.0234375 1.71875 0 1.625 0 L 0.484375 0 C 0.390625 0 0.34375 -0.0234375 0.34375 -0.078125 C 0.34375 -0.109375 0.347656 -0.128906 0.359375 -0.140625 C 0.378906 -0.148438 0.410156 -0.160156 0.453125 -0.171875 L 0.6875 -0.234375 C 0.789062 -0.265625 0.859375 -0.296875 0.890625 -0.328125 C 0.921875 -0.359375 0.9375 -0.414062 0.9375 -0.5 L 0.9375 -3.703125 C 0.9375 -3.742188 0.929688 -3.78125 0.921875 -3.8125 C 0.910156 -3.84375 0.894531 -3.875 0.875 -3.90625 C 0.851562 -3.945312 0.816406 -4 0.765625 -4.0625 L 0.46875 -4.40625 C 0.445312 -4.4375 0.429688 -4.457031 0.421875 -4.46875 C 0.410156 -4.476562 0.40625 -4.492188 0.40625 -4.515625 C 0.40625 -4.554688 0.4375 -4.578125 0.5 -4.578125 L 0.875 -4.578125 C 0.925781 -4.578125 0.96875 -4.566406 1 -4.546875 C 1.03125 -4.523438 1.0625 -4.492188 1.09375 -4.453125 L 3.953125 -0.875 L 3.953125 -4.078125 C 3.953125 -4.148438 3.9375 -4.203125 3.90625 -4.234375 C 3.875 -4.273438 3.804688 -4.304688 3.703125 -4.328125 L 3.46875 -4.390625 C 3.425781 -4.398438 3.398438 -4.410156 3.390625 -4.421875 C 3.378906 -4.441406 3.375 -4.460938 3.375 -4.484375 C 3.375 -4.546875 3.414062 -4.578125 3.5 -4.578125 L 4.640625 -4.578125 C 4.734375 -4.578125 4.78125 -4.546875 4.78125 -4.484375 C 4.78125 -4.460938 4.769531 -4.441406 4.75 -4.421875 C 4.738281 -4.410156 4.710938 -4.398438 4.671875 -4.390625 L 4.4375 -4.328125 C 4.34375 -4.304688 4.273438 -4.273438 4.234375 -4.234375 C 4.203125 -4.203125 4.1875 -4.148438 4.1875 -4.078125 L 4.1875 -0.6875 C 4.1875 -0.625 4.191406 -0.578125 4.203125 -0.546875 C 4.222656 -0.515625 4.242188 -0.484375 4.265625 -0.453125 L 4.46875 -0.203125 C 4.488281 -0.160156 4.503906 -0.128906 4.515625 -0.109375 C 4.523438 -0.0976562 4.53125 -0.0859375 4.53125 -0.078125 C 4.53125 -0.0234375 4.492188 0 4.421875 0 L 3.96875 0 C 3.894531 0 3.859375 -0.0234375 3.859375 -0.078125 C 3.859375 -0.0976562 3.859375 -0.113281 3.859375 -0.125 C 3.859375 -0.144531 3.847656 -0.164062 3.828125 -0.1875 C 3.804688 -0.21875 3.78125 -0.257812 3.75 -0.3125 L 1.171875 -3.5625 L 1.171875 -0.5 C 1.171875 -0.414062 1.1875 -0.359375 1.21875 -0.328125 C 1.25 -0.296875 1.316406 -0.265625 1.421875 -0.234375 L 1.65625 -0.171875 C 1.695312 -0.160156 1.722656 -0.148438 1.734375 -0.140625 C 1.753906 -0.128906 1.765625 -0.109375 1.765625 -0.078125 Z M 1.765625 -0.078125 "/></g></g><g style="fill:#000000;fill-opacity:1;"><g transform="translate(28.839787, 13.618244)"><path style="stroke:none" d=""/></g></g><g style="fill:#000000;fill-opacity:1;"><g transform="translate(30.688756, 13.618244)"><path style="stroke:none" d="M 3.015625 -0.078125 C 3.015625 -0.0234375 2.972656 0 2.890625 0 L 1.59375 0 C 1.507812 0 1.46875 -0.0234375 1.46875 -0.078125 C 1.46875 -0.128906 1.503906 -0.164062 1.578125 -0.1875 L 1.828125 -0.21875 C 1.929688 -0.238281 1.984375 -0.296875 1.984375 -0.390625 L 1.984375 -1.5625 L 0.578125 -4.1875 C 0.546875 -4.25 0.515625 -4.289062 0.484375 -4.3125 C 0.460938 -4.332031 0.425781 -4.347656 0.375 -4.359375 L 0.265625 -4.390625 C 0.210938 -4.398438 0.175781 -4.410156 0.15625 -4.421875 C 0.144531 -4.441406 0.140625 -4.460938 0.140625 -4.484375 C 0.140625 -4.546875 0.179688 -4.578125 0.265625 -4.578125 L 1.546875 -4.578125 C 1.640625 -4.578125 1.6875 -4.546875 1.6875 -4.484375 C 1.6875 -4.460938 1.675781 -4.441406 1.65625 -4.421875 C 1.632812 -4.410156 1.597656 -4.398438 1.546875 -4.390625 L 1.3125 -4.359375 C 1.21875 -4.335938 1.160156 -4.3125 1.140625 -4.28125 C 1.117188 -4.25 1.125 -4.203125 1.15625 -4.140625 L 2.375 -1.84375 L 3.53125 -4.03125 C 3.582031 -4.125 3.59375 -4.195312 3.5625 -4.25 C 3.539062 -4.300781 3.484375 -4.335938 3.390625 -4.359375 L 3.125 -4.390625 C 3.050781 -4.398438 3.015625 -4.429688 3.015625 -4.484375 C 3.015625 -4.546875 3.054688 -4.578125 3.140625 -4.578125 L 4.171875 -4.578125 C 4.265625 -4.578125 4.3125 -4.546875 4.3125 -4.484375 C 4.3125 -4.460938 4.300781 -4.441406 4.28125 -4.421875 C 4.269531 -4.410156 4.238281 -4.398438 4.1875 -4.390625 L 4.125 -4.375 C 4.082031 -4.363281 4.039062 -4.34375 4 -4.3125 C 3.96875 -4.289062 3.9375 -4.257812 3.90625 -4.21875 C 3.875 -4.175781 3.835938 -4.109375 3.796875 -4.015625 L 2.5 -1.59375 L 2.5 -0.390625 C 2.5 -0.296875 2.550781 -0.238281 2.65625 -0.21875 L 2.90625 -0.1875 C 2.976562 -0.164062 3.015625 -0.128906 3.015625 -0.078125 Z M 3.015625 -0.078125 "/></g></g><g style="fill:#000000;fill-opacity:1;"><g transform="translate(35.421944, 13.618244)"><path style="stroke:none" d="M 2.578125 -4.671875 C 2.910156 -4.671875 3.210938 -4.609375 3.484375 -4.484375 C 3.765625 -4.367188 4.003906 -4.203125 4.203125 -3.984375 C 4.410156 -3.765625 4.566406 -3.507812 4.671875 -3.21875 C 4.785156 -2.925781 4.84375 -2.601562 4.84375 -2.25 C 4.84375 -1.90625 4.785156 -1.585938 4.671875 -1.296875 C 4.566406 -1.003906 4.414062 -0.753906 4.21875 -0.546875 C 4.019531 -0.335938 3.78125 -0.175781 3.5 -0.0625 C 3.21875 0.0507812 2.910156 0.109375 2.578125 0.109375 C 2.242188 0.109375 1.9375 0.0507812 1.65625 -0.0625 C 1.382812 -0.1875 1.148438 -0.351562 0.953125 -0.5625 C 0.753906 -0.78125 0.597656 -1.035156 0.484375 -1.328125 C 0.378906 -1.628906 0.328125 -1.957031 0.328125 -2.3125 C 0.328125 -2.65625 0.378906 -2.972656 0.484375 -3.265625 C 0.597656 -3.554688 0.753906 -3.804688 0.953125 -4.015625 C 1.148438 -4.222656 1.382812 -4.382812 1.65625 -4.5 C 1.9375 -4.613281 2.242188 -4.671875 2.578125 -4.671875 Z M 4.328125 -1.984375 C 4.328125 -2.347656 4.28125 -2.675781 4.1875 -2.96875 C 4.09375 -3.269531 3.957031 -3.53125 3.78125 -3.75 C 3.613281 -3.96875 3.414062 -4.132812 3.1875 -4.25 C 2.96875 -4.375 2.722656 -4.4375 2.453125 -4.4375 C 2.210938 -4.4375 1.992188 -4.394531 1.796875 -4.3125 C 1.609375 -4.226562 1.441406 -4.101562 1.296875 -3.9375 C 1.160156 -3.769531 1.050781 -3.570312 0.96875 -3.34375 C 0.894531 -3.113281 0.859375 -2.851562 0.859375 -2.5625 C 0.859375 -2.207031 0.90625 -1.878906 1 -1.578125 C 1.09375 -1.285156 1.222656 -1.023438 1.390625 -0.796875 C 1.554688 -0.578125 1.75 -0.40625 1.96875 -0.28125 C 2.195312 -0.164062 2.445312 -0.109375 2.71875 -0.109375 C 2.957031 -0.109375 3.171875 -0.148438 3.359375 -0.234375 C 3.554688 -0.328125 3.726562 -0.453125 3.875 -0.609375 C 4.019531 -0.773438 4.128906 -0.972656 4.203125 -1.203125 C 4.285156 -1.441406 4.328125 -1.703125 4.328125 -1.984375 Z M 4.328125 -1.984375 "/></g></g><g style="fill:#000000;fill-opacity:1;"><g transform="translate(40.929265, 13.618244)"><path style="stroke:none" d="M 3.828125 -1.890625 L 3.703125 -4.125 C 3.703125 -4.1875 3.679688 -4.234375 3.640625 -4.265625 C 3.609375 -4.304688 3.550781 -4.335938 3.46875 -4.359375 L 3.25 -4.390625 C 3.195312 -4.398438 3.160156 -4.410156 3.140625 -4.421875 C 3.128906 -4.441406 3.125 -4.460938 3.125 -4.484375 C 3.125 -4.546875 3.164062 -4.578125 3.25 -4.578125 L 4.390625 -4.578125 C 4.472656 -4.578125 4.515625 -4.546875 4.515625 -4.484375 C 4.515625 -4.460938 4.503906 -4.441406 4.484375 -4.421875 C 4.472656 -4.410156 4.441406 -4.398438 4.390625 -4.390625 L 4.203125 -4.359375 C 4.109375 -4.347656 4.039062 -4.316406 4 -4.265625 C 3.96875 -4.222656 3.953125 -4.171875 3.953125 -4.109375 L 4.0625 -1.875 C 4.070312 -1.769531 4.078125 -1.664062 4.078125 -1.5625 C 4.085938 -1.457031 4.097656 -1.351562 4.109375 -1.25 C 4.117188 -0.976562 4.0625 -0.738281 3.9375 -0.53125 C 3.820312 -0.332031 3.640625 -0.175781 3.390625 -0.0625 C 3.148438 0.0507812 2.847656 0.109375 2.484375 0.109375 C 2.097656 0.109375 1.769531 0.0507812 1.5 -0.0625 C 1.238281 -0.175781 1.039062 -0.332031 0.90625 -0.53125 C 0.78125 -0.726562 0.722656 -0.960938 0.734375 -1.234375 C 0.734375 -1.296875 0.734375 -1.375 0.734375 -1.46875 C 0.742188 -1.570312 0.753906 -1.675781 0.765625 -1.78125 C 0.773438 -1.894531 0.78125 -2 0.78125 -2.09375 L 0.875 -4.15625 C 0.882812 -4.21875 0.867188 -4.265625 0.828125 -4.296875 C 0.796875 -4.328125 0.738281 -4.347656 0.65625 -4.359375 L 0.453125 -4.390625 C 0.410156 -4.398438 0.378906 -4.410156 0.359375 -4.421875 C 0.335938 -4.441406 0.328125 -4.460938 0.328125 -4.484375 C 0.328125 -4.546875 0.367188 -4.578125 0.453125 -4.578125 L 1.828125 -4.578125 C 1.910156 -4.578125 1.953125 -4.546875 1.953125 -4.484375 C 1.953125 -4.460938 1.941406 -4.441406 1.921875 -4.421875 C 1.898438 -4.410156 1.863281 -4.398438 1.8125 -4.390625 L 1.625 -4.359375 C 1.550781 -4.347656 1.492188 -4.328125 1.453125 -4.296875 C 1.421875 -4.265625 1.40625 -4.21875 1.40625 -4.15625 L 1.296875 -2.125 C 1.285156 -1.957031 1.273438 -1.804688 1.265625 -1.671875 C 1.265625 -1.535156 1.265625 -1.410156 1.265625 -1.296875 C 1.253906 -1.035156 1.300781 -0.816406 1.40625 -0.640625 C 1.507812 -0.472656 1.660156 -0.347656 1.859375 -0.265625 C 2.054688 -0.179688 2.289062 -0.140625 2.5625 -0.140625 C 2.84375 -0.140625 3.078125 -0.179688 3.265625 -0.265625 C 3.460938 -0.347656 3.609375 -0.472656 3.703125 -0.640625 C 3.804688 -0.804688 3.851562 -1.003906 3.84375 -1.234375 C 3.84375 -1.378906 3.835938 -1.503906 3.828125 -1.609375 C 3.828125 -1.710938 3.828125 -1.804688 3.828125 -1.890625 Z M 3.828125 -1.890625 "/></g></g><g style="fill:#000000;fill-opacity:1;"><g transform="translate(46.077284, 13.618244)"><path style="stroke:none" d="M 3.953125 -3.03125 C 3.953125 -2.832031 3.910156 -2.648438 3.828125 -2.484375 C 3.742188 -2.328125 3.628906 -2.191406 3.484375 -2.078125 C 3.347656 -1.960938 3.179688 -1.875 2.984375 -1.8125 L 3.90625 -0.421875 C 3.945312 -0.359375 3.992188 -0.304688 4.046875 -0.265625 C 4.097656 -0.234375 4.171875 -0.207031 4.265625 -0.1875 C 4.347656 -0.175781 4.398438 -0.160156 4.421875 -0.140625 C 4.453125 -0.128906 4.46875 -0.109375 4.46875 -0.078125 C 4.46875 -0.0234375 4.421875 0 4.328125 0 L 3.171875 0 C 3.085938 0 3.046875 -0.0234375 3.046875 -0.078125 C 3.046875 -0.117188 3.078125 -0.148438 3.140625 -0.171875 L 3.296875 -0.1875 C 3.347656 -0.195312 3.378906 -0.21875 3.390625 -0.25 C 3.398438 -0.28125 3.382812 -0.320312 3.34375 -0.375 L 2.46875 -1.734375 C 2.414062 -1.722656 2.351562 -1.71875 2.28125 -1.71875 C 2.125 -1.71875 1.96875 -1.726562 1.8125 -1.75 C 1.664062 -1.78125 1.535156 -1.816406 1.421875 -1.859375 L 1.421875 -0.390625 C 1.421875 -0.296875 1.472656 -0.238281 1.578125 -0.21875 L 1.9375 -0.1875 C 1.96875 -0.175781 1.992188 -0.160156 2.015625 -0.140625 C 2.035156 -0.128906 2.046875 -0.109375 2.046875 -0.078125 C 2.046875 -0.0234375 2.003906 0 1.921875 0 L 0.515625 0 C 0.429688 0 0.390625 -0.0234375 0.390625 -0.078125 C 0.390625 -0.128906 0.425781 -0.164062 0.5 -0.1875 L 0.75 -0.21875 C 0.851562 -0.238281 0.90625 -0.296875 0.90625 -0.390625 L 0.90625 -4.1875 C 0.90625 -4.28125 0.851562 -4.332031 0.75 -4.34375 L 0.5 -4.390625 C 0.425781 -4.398438 0.390625 -4.429688 0.390625 -4.484375 C 0.390625 -4.546875 0.429688 -4.578125 0.515625 -4.578125 L 1.875 -4.578125 C 2.207031 -4.578125 2.5 -4.535156 2.75 -4.453125 C 3.007812 -4.378906 3.226562 -4.269531 3.40625 -4.125 C 3.582031 -3.988281 3.71875 -3.828125 3.8125 -3.640625 C 3.90625 -3.453125 3.953125 -3.25 3.953125 -3.03125 Z M 1.421875 -4.375 L 1.421875 -2.0625 C 1.523438 -2.019531 1.644531 -1.984375 1.78125 -1.953125 C 1.925781 -1.929688 2.066406 -1.921875 2.203125 -1.921875 C 2.453125 -1.921875 2.664062 -1.960938 2.84375 -2.046875 C 3.019531 -2.140625 3.15625 -2.269531 3.25 -2.4375 C 3.351562 -2.601562 3.40625 -2.804688 3.40625 -3.046875 C 3.40625 -3.296875 3.34375 -3.519531 3.21875 -3.71875 C 3.09375 -3.925781 2.914062 -4.085938 2.6875 -4.203125 C 2.457031 -4.316406 2.179688 -4.375 1.859375 -4.375 Z M 1.421875 -4.375 "/></g></g><g style="fill:#000000;fill-opacity:1;"><g transform="translate(50.826803, 13.618244)"><path style="stroke:none" d=""/></g></g><g style="fill:#000000;fill-opacity:1;"><g transform="translate(52.675773, 13.618244)"><path style="stroke:none" d="M 3.078125 -4.484375 C 3.078125 -4.546875 3.117188 -4.578125 3.203125 -4.578125 L 4.25 -4.578125 C 4.332031 -4.578125 4.375 -4.546875 4.375 -4.484375 C 4.375 -4.460938 4.363281 -4.445312 4.34375 -4.4375 C 4.332031 -4.425781 4.304688 -4.410156 4.265625 -4.390625 L 4.109375 -4.359375 C 4.054688 -4.335938 4.007812 -4.300781 3.96875 -4.25 C 3.9375 -4.207031 3.90625 -4.132812 3.875 -4.03125 L 2.609375 -0.46875 C 2.585938 -0.414062 2.570312 -0.375 2.5625 -0.34375 C 2.550781 -0.3125 2.546875 -0.273438 2.546875 -0.234375 L 2.546875 -0.125 C 2.546875 -0.0390625 2.507812 0 2.4375 0 L 2.03125 0 C 1.945312 0 1.90625 -0.0390625 1.90625 -0.125 L 1.90625 -0.234375 C 1.90625 -0.273438 1.898438 -0.3125 1.890625 -0.34375 C 1.890625 -0.375 1.878906 -0.414062 1.859375 -0.46875 L 0.53125 -4.1875 C 0.507812 -4.238281 0.484375 -4.273438 0.453125 -4.296875 C 0.429688 -4.328125 0.398438 -4.347656 0.359375 -4.359375 L 0.203125 -4.390625 C 0.128906 -4.410156 0.09375 -4.441406 0.09375 -4.484375 C 0.09375 -4.546875 0.140625 -4.578125 0.234375 -4.578125 L 1.46875 -4.578125 C 1.550781 -4.578125 1.59375 -4.546875 1.59375 -4.484375 C 1.59375 -4.441406 1.554688 -4.410156 1.484375 -4.390625 L 1.171875 -4.359375 C 1.109375 -4.347656 1.070312 -4.328125 1.0625 -4.296875 C 1.050781 -4.265625 1.0625 -4.210938 1.09375 -4.140625 L 2.390625 -0.515625 L 3.625 -4.046875 C 3.65625 -4.140625 3.660156 -4.207031 3.640625 -4.25 C 3.617188 -4.300781 3.566406 -4.335938 3.484375 -4.359375 L 3.1875 -4.390625 C 3.113281 -4.410156 3.078125 -4.441406 3.078125 -4.484375 Z M 3.078125 -4.484375 "/></g></g><g style="fill:#000000;fill-opacity:1;"><g transform="translate(57.477553, 13.618244)"><path style="stroke:none" d="M 1.375 -0.078125 C 1.375 -0.0234375 1.328125 0 1.234375 0 L 0.234375 0 C 0.148438 0 0.109375 -0.0234375 0.109375 -0.078125 C 0.109375 -0.0976562 0.113281 -0.113281 0.125 -0.125 C 0.144531 -0.144531 0.175781 -0.160156 0.21875 -0.171875 L 0.359375 -0.21875 C 0.398438 -0.226562 0.429688 -0.242188 0.453125 -0.265625 C 0.484375 -0.285156 0.507812 -0.316406 0.53125 -0.359375 C 0.550781 -0.398438 0.570312 -0.457031 0.59375 -0.53125 L 1.84375 -4.203125 C 1.863281 -4.265625 1.863281 -4.304688 1.84375 -4.328125 C 1.832031 -4.359375 1.789062 -4.378906 1.71875 -4.390625 C 1.65625 -4.398438 1.609375 -4.410156 1.578125 -4.421875 C 1.554688 -4.441406 1.546875 -4.460938 1.546875 -4.484375 C 1.546875 -4.546875 1.59375 -4.578125 1.6875 -4.578125 L 2.796875 -4.578125 C 2.878906 -4.578125 2.921875 -4.550781 2.921875 -4.5 C 2.921875 -4.46875 2.910156 -4.441406 2.890625 -4.421875 C 2.867188 -4.410156 2.828125 -4.398438 2.765625 -4.390625 C 2.703125 -4.378906 2.660156 -4.363281 2.640625 -4.34375 C 2.628906 -4.320312 2.632812 -4.285156 2.65625 -4.234375 L 3.96875 -0.421875 C 3.988281 -0.347656 4.019531 -0.289062 4.0625 -0.25 C 4.101562 -0.21875 4.164062 -0.195312 4.25 -0.1875 C 4.3125 -0.175781 4.347656 -0.160156 4.359375 -0.140625 C 4.378906 -0.128906 4.390625 -0.109375 4.390625 -0.078125 C 4.390625 -0.0234375 4.347656 0 4.265625 0 L 3.109375 0 C 3.015625 0 2.96875 -0.0234375 2.96875 -0.078125 C 2.96875 -0.128906 3.007812 -0.160156 3.09375 -0.171875 L 3.359375 -0.203125 C 3.410156 -0.210938 3.4375 -0.234375 3.4375 -0.265625 C 3.445312 -0.296875 3.441406 -0.351562 3.421875 -0.4375 L 3.03125 -1.5625 L 1.203125 -1.5625 L 0.859375 -0.546875 C 0.816406 -0.441406 0.804688 -0.363281 0.828125 -0.3125 C 0.847656 -0.269531 0.90625 -0.238281 1 -0.21875 L 1.25 -0.171875 C 1.332031 -0.160156 1.375 -0.128906 1.375 -0.078125 Z M 1.28125 -1.78125 L 2.96875 -1.78125 L 2.109375 -4.25 Z M 1.28125 -1.78125 "/></g></g><g style="fill:#000000;fill-opacity:1;"><g transform="translate(62.318533, 13.618244)"><path style="stroke:none" d="M 2.09375 0.109375 C 1.9375 0.109375 1.796875 0.09375 1.671875 0.0625 C 1.554688 0.03125 1.453125 -0.00390625 1.359375 -0.046875 C 1.265625 -0.0859375 1.191406 -0.125 1.140625 -0.15625 C 1.085938 -0.1875 1.046875 -0.203125 1.015625 -0.203125 C 0.984375 -0.203125 0.960938 -0.1875 0.953125 -0.15625 C 0.941406 -0.125 0.929688 -0.0859375 0.921875 -0.046875 C 0.910156 -0.015625 0.894531 0.015625 0.875 0.046875 C 0.863281 0.078125 0.835938 0.09375 0.796875 0.09375 C 0.742188 0.09375 0.710938 0.0625 0.703125 0 L 0.4375 -1 C 0.414062 -1.070312 0.441406 -1.117188 0.515625 -1.140625 C 0.578125 -1.160156 0.625 -1.132812 0.65625 -1.0625 C 0.757812 -0.84375 0.890625 -0.660156 1.046875 -0.515625 C 1.203125 -0.367188 1.363281 -0.257812 1.53125 -0.1875 C 1.707031 -0.125 1.890625 -0.09375 2.078125 -0.09375 C 2.242188 -0.09375 2.390625 -0.125 2.515625 -0.1875 C 2.640625 -0.257812 2.734375 -0.351562 2.796875 -0.46875 C 2.867188 -0.59375 2.90625 -0.734375 2.90625 -0.890625 C 2.90625 -0.992188 2.890625 -1.09375 2.859375 -1.1875 C 2.828125 -1.289062 2.765625 -1.382812 2.671875 -1.46875 C 2.585938 -1.5625 2.46875 -1.648438 2.3125 -1.734375 C 2.15625 -1.828125 1.953125 -1.914062 1.703125 -2 C 1.378906 -2.113281 1.117188 -2.238281 0.921875 -2.375 C 0.734375 -2.519531 0.59375 -2.679688 0.5 -2.859375 C 0.414062 -3.035156 0.375 -3.226562 0.375 -3.4375 C 0.375 -3.6875 0.429688 -3.898438 0.546875 -4.078125 C 0.660156 -4.265625 0.816406 -4.40625 1.015625 -4.5 C 1.210938 -4.601562 1.445312 -4.65625 1.71875 -4.65625 C 1.875 -4.65625 2.007812 -4.640625 2.125 -4.609375 C 2.238281 -4.578125 2.332031 -4.539062 2.40625 -4.5 C 2.488281 -4.46875 2.554688 -4.4375 2.609375 -4.40625 C 2.660156 -4.375 2.703125 -4.359375 2.734375 -4.359375 C 2.765625 -4.359375 2.785156 -4.375 2.796875 -4.40625 C 2.804688 -4.4375 2.8125 -4.46875 2.8125 -4.5 C 2.820312 -4.539062 2.832031 -4.578125 2.84375 -4.609375 C 2.863281 -4.640625 2.890625 -4.65625 2.921875 -4.65625 C 2.953125 -4.65625 2.972656 -4.644531 2.984375 -4.625 C 3.003906 -4.613281 3.019531 -4.585938 3.03125 -4.546875 L 3.359375 -3.484375 C 3.367188 -3.453125 3.367188 -3.421875 3.359375 -3.390625 C 3.347656 -3.359375 3.328125 -3.335938 3.296875 -3.328125 C 3.234375 -3.304688 3.179688 -3.332031 3.140625 -3.40625 C 3.015625 -3.664062 2.878906 -3.867188 2.734375 -4.015625 C 2.585938 -4.171875 2.429688 -4.28125 2.265625 -4.34375 C 2.097656 -4.414062 1.921875 -4.453125 1.734375 -4.453125 C 1.554688 -4.453125 1.398438 -4.414062 1.265625 -4.34375 C 1.128906 -4.269531 1.019531 -4.164062 0.9375 -4.03125 C 0.863281 -3.90625 0.828125 -3.757812 0.828125 -3.59375 C 0.828125 -3.476562 0.84375 -3.367188 0.875 -3.265625 C 0.914062 -3.160156 0.976562 -3.0625 1.0625 -2.96875 C 1.15625 -2.875 1.273438 -2.78125 1.421875 -2.6875 C 1.578125 -2.601562 1.769531 -2.519531 2 -2.4375 C 2.34375 -2.3125 2.613281 -2.175781 2.8125 -2.03125 C 3.007812 -1.894531 3.148438 -1.742188 3.234375 -1.578125 C 3.316406 -1.421875 3.359375 -1.238281 3.359375 -1.03125 C 3.347656 -0.820312 3.296875 -0.628906 3.203125 -0.453125 C 3.109375 -0.285156 2.96875 -0.148438 2.78125 -0.046875 C 2.59375 0.0546875 2.363281 0.109375 2.09375 0.109375 Z M 2.09375 0.109375 "/></g></g><g style="fill:#000000;fill-opacity:1;"><g transform="translate(66.378846, 13.618244)"><path style="stroke:none" d="M 0.390625 -4.484375 C 0.390625 -4.546875 0.429688 -4.578125 0.515625 -4.578125 L 3 -4.578125 C 3.0625 -4.578125 3.109375 -4.585938 3.140625 -4.609375 C 3.179688 -4.628906 3.21875 -4.648438 3.25 -4.671875 C 3.289062 -4.703125 3.328125 -4.71875 3.359375 -4.71875 C 3.398438 -4.71875 3.429688 -4.707031 3.453125 -4.6875 C 3.472656 -4.664062 3.488281 -4.632812 3.5 -4.59375 L 3.75 -3.671875 C 3.769531 -3.609375 3.75 -3.566406 3.6875 -3.546875 C 3.613281 -3.535156 3.554688 -3.566406 3.515625 -3.640625 C 3.453125 -3.796875 3.390625 -3.921875 3.328125 -4.015625 C 3.273438 -4.117188 3.21875 -4.195312 3.15625 -4.25 C 3.09375 -4.300781 3.023438 -4.332031 2.953125 -4.34375 C 2.878906 -4.363281 2.789062 -4.375 2.6875 -4.375 L 1.421875 -4.375 L 1.421875 -2.375 L 2.453125 -2.375 C 2.546875 -2.375 2.613281 -2.378906 2.65625 -2.390625 C 2.707031 -2.410156 2.742188 -2.445312 2.765625 -2.5 C 2.796875 -2.5625 2.816406 -2.640625 2.828125 -2.734375 C 2.828125 -2.773438 2.832031 -2.804688 2.84375 -2.828125 C 2.863281 -2.847656 2.890625 -2.859375 2.921875 -2.859375 C 2.972656 -2.867188 3.007812 -2.835938 3.03125 -2.765625 L 3.265625 -1.859375 C 3.285156 -1.785156 3.265625 -1.742188 3.203125 -1.734375 C 3.148438 -1.722656 3.101562 -1.742188 3.0625 -1.796875 C 3.019531 -1.898438 2.976562 -1.976562 2.9375 -2.03125 C 2.894531 -2.082031 2.84375 -2.117188 2.78125 -2.140625 C 2.726562 -2.160156 2.664062 -2.171875 2.59375 -2.171875 L 1.421875 -2.171875 L 1.421875 -0.453125 C 1.421875 -0.367188 1.445312 -0.304688 1.5 -0.265625 C 1.5625 -0.222656 1.65625 -0.203125 1.78125 -0.203125 L 2.78125 -0.203125 C 2.882812 -0.203125 2.972656 -0.210938 3.046875 -0.234375 C 3.117188 -0.253906 3.1875 -0.296875 3.25 -0.359375 C 3.3125 -0.429688 3.375 -0.53125 3.4375 -0.65625 C 3.507812 -0.78125 3.582031 -0.941406 3.65625 -1.140625 C 3.675781 -1.171875 3.695312 -1.191406 3.71875 -1.203125 C 3.738281 -1.222656 3.757812 -1.226562 3.78125 -1.21875 C 3.851562 -1.21875 3.878906 -1.175781 3.859375 -1.09375 L 3.609375 -0.015625 C 3.585938 0.078125 3.539062 0.125 3.46875 0.125 C 3.425781 0.125 3.390625 0.113281 3.359375 0.09375 C 3.328125 0.0703125 3.289062 0.0507812 3.25 0.03125 C 3.207031 0.0078125 3.160156 0 3.109375 0 L 0.515625 0 C 0.429688 0 0.390625 -0.0234375 0.390625 -0.078125 C 0.390625 -0.128906 0.425781 -0.164062 0.5 -0.1875 L 0.75 -0.21875 C 0.863281 -0.238281 0.921875 -0.296875 0.921875 -0.390625 L 0.921875 -4.1875 C 0.921875 -4.28125 0.863281 -4.332031 0.75 -4.34375 L 0.5 -4.390625 C 0.425781 -4.398438 0.390625 -4.429688 0.390625 -4.484375 Z M 0.390625 -4.484375 "/></g></g><g style="fill:#000000;fill-opacity:1;"><g transform="translate(31.23111, 22.061183)"><path style="stroke:none" d="M 3.609375 -1.421875 C 3.628906 -1.390625 3.640625 -1.351562 3.640625 -1.3125 C 3.640625 -1.28125 3.628906 -1.25 3.609375 -1.21875 C 3.441406 -1.0625 3.242188 -0.945312 3.015625 -0.875 C 2.796875 -0.8125 2.5625 -0.769531 2.3125 -0.75 C 2.070312 -0.738281 1.847656 -0.738281 1.640625 -0.75 C 1.191406 -0.78125 0.753906 -0.863281 0.328125 -1 C 0.285156 -1.007812 0.25 -1.003906 0.21875 -0.984375 C 0.195312 -0.960938 0.191406 -0.929688 0.203125 -0.890625 C 0.203125 -0.835938 0.203125 -0.78125 0.203125 -0.71875 C 0.210938 -0.664062 0.222656 -0.613281 0.234375 -0.5625 C 0.265625 -0.175781 0.289062 0.1875 0.3125 0.53125 C 0.332031 0.882812 0.335938 1.203125 0.328125 1.484375 C 0.316406 1.765625 0.273438 2 0.203125 2.1875 C 0.140625 2.375 0.0390625 2.492188 -0.09375 2.546875 C -0.125 2.554688 -0.15625 2.5625 -0.1875 2.5625 C -0.25 2.5625 -0.300781 2.535156 -0.34375 2.484375 C -0.414062 2.421875 -0.460938 2.300781 -0.484375 2.125 C -0.515625 1.945312 -0.519531 1.734375 -0.5 1.484375 C -0.488281 1.234375 -0.460938 0.960938 -0.421875 0.671875 C -0.390625 0.390625 -0.34375 0.101562 -0.28125 -0.1875 C -0.226562 -0.476562 -0.171875 -0.753906 -0.109375 -1.015625 C -0.109375 -1.023438 -0.109375 -1.03125 -0.109375 -1.03125 C -0.117188 -1.175781 -0.113281 -1.273438 -0.09375 -1.328125 C -0.0820312 -1.378906 -0.0546875 -1.410156 -0.015625 -1.421875 C -0.015625 -1.453125 -0.00390625 -1.476562 0.015625 -1.5 L 0.03125 -1.515625 C 0.0820312 -1.679688 0.140625 -1.859375 0.203125 -2.046875 C 0.265625 -2.234375 0.332031 -2.414062 0.40625 -2.59375 C 0.488281 -2.769531 0.570312 -2.921875 0.65625 -3.046875 C 0.738281 -3.171875 0.832031 -3.265625 0.9375 -3.328125 C 1.019531 -3.378906 1.113281 -3.390625 1.21875 -3.359375 C 1.320312 -3.335938 1.382812 -3.273438 1.40625 -3.171875 C 1.425781 -3.097656 1.414062 -3.003906 1.375 -2.890625 C 1.332031 -2.773438 1.269531 -2.648438 1.1875 -2.515625 C 1.113281 -2.390625 1.023438 -2.257812 0.921875 -2.125 C 0.828125 -2 0.726562 -1.875 0.625 -1.75 C 0.519531 -1.632812 0.429688 -1.53125 0.359375 -1.4375 C 0.316406 -1.40625 0.296875 -1.375 0.296875 -1.34375 C 0.304688 -1.320312 0.335938 -1.300781 0.390625 -1.28125 C 0.515625 -1.238281 0.675781 -1.195312 0.875 -1.15625 C 1.070312 -1.113281 1.285156 -1.078125 1.515625 -1.046875 C 1.753906 -1.023438 1.992188 -1.019531 2.234375 -1.03125 C 2.472656 -1.039062 2.691406 -1.078125 2.890625 -1.140625 C 3.097656 -1.203125 3.269531 -1.296875 3.40625 -1.421875 C 3.4375 -1.453125 3.46875 -1.46875 3.5 -1.46875 C 3.539062 -1.46875 3.578125 -1.453125 3.609375 -1.421875 Z M 1.0625 -3.0625 C 1.039062 -3.050781 1.003906 -3.007812 0.953125 -2.9375 C 0.910156 -2.863281 0.859375 -2.78125 0.796875 -2.6875 C 0.734375 -2.59375 0.675781 -2.5 0.625 -2.40625 C 0.570312 -2.3125 0.523438 -2.234375 0.484375 -2.171875 C 0.453125 -2.109375 0.4375 -2.066406 0.4375 -2.046875 C 0.445312 -2.023438 0.484375 -2.046875 0.546875 -2.109375 C 0.617188 -2.191406 0.691406 -2.285156 0.765625 -2.390625 C 0.847656 -2.492188 0.914062 -2.597656 0.96875 -2.703125 C 1.03125 -2.816406 1.078125 -2.90625 1.109375 -2.96875 C 1.140625 -3.039062 1.148438 -3.082031 1.140625 -3.09375 C 1.117188 -3.101562 1.097656 -3.097656 1.078125 -3.078125 C 1.066406 -3.066406 1.0625 -3.0625 1.0625 -3.0625 Z M -0.171875 2.265625 C -0.140625 2.265625 -0.109375 2.222656 -0.078125 2.140625 C -0.0546875 2.066406 -0.0351562 1.960938 -0.015625 1.828125 C -0.00390625 1.691406 0.00390625 1.539062 0.015625 1.375 C 0.0234375 1.207031 0.03125 1.039062 0.03125 0.875 C 0.03125 0.71875 0.03125 0.566406 0.03125 0.421875 C 0.03125 0.285156 0.0234375 0.175781 0.015625 0.09375 C 0.00390625 0.0078125 -0.00390625 -0.03125 -0.015625 -0.03125 C -0.0351562 -0.03125 -0.0546875 0.0195312 -0.078125 0.125 C -0.109375 0.238281 -0.132812 0.378906 -0.15625 0.546875 C -0.175781 0.722656 -0.191406 0.90625 -0.203125 1.09375 C -0.222656 1.289062 -0.234375 1.472656 -0.234375 1.640625 C -0.242188 1.816406 -0.242188 1.960938 -0.234375 2.078125 C -0.222656 2.191406 -0.203125 2.253906 -0.171875 2.265625 Z M -0.171875 2.265625 "/></g></g><g style="fill:#000000;fill-opacity:1;"><g transform="translate(34.6117, 22.061183)"><path style="stroke:none" d="M 3.75 -1.40625 C 3.78125 -1.375 3.796875 -1.335938 3.796875 -1.296875 C 3.796875 -1.253906 3.78125 -1.21875 3.75 -1.1875 C 3.738281 -1.175781 3.6875 -1.128906 3.59375 -1.046875 C 3.5 -0.960938 3.375 -0.859375 3.21875 -0.734375 C 3.0625 -0.617188 2.878906 -0.5 2.671875 -0.375 C 2.472656 -0.257812 2.265625 -0.160156 2.046875 -0.078125 C 1.828125 0.00390625 1.609375 0.046875 1.390625 0.046875 C 1.253906 0.046875 1.125 0.0234375 1 -0.015625 C 0.757812 -0.078125 0.554688 -0.21875 0.390625 -0.4375 C 0.234375 -0.65625 0.117188 -0.9375 0.046875 -1.28125 C 0.046875 -1.289062 0.046875 -1.304688 0.046875 -1.328125 C 0.015625 -1.503906 -0.00390625 -1.6875 -0.015625 -1.875 C -0.0234375 -2.101562 -0.0195312 -2.347656 0 -2.609375 C 0.0078125 -2.867188 0.0351562 -3.125 0.078125 -3.375 C 0.128906 -3.625 0.191406 -3.851562 0.265625 -4.0625 C 0.347656 -4.28125 0.4375 -4.460938 0.53125 -4.609375 C 0.625 -4.753906 0.722656 -4.847656 0.828125 -4.890625 C 0.910156 -4.929688 0.992188 -4.9375 1.078125 -4.90625 C 1.160156 -4.882812 1.226562 -4.84375 1.28125 -4.78125 C 1.351562 -4.695312 1.390625 -4.578125 1.390625 -4.421875 C 1.398438 -4.265625 1.382812 -4.082031 1.34375 -3.875 C 1.300781 -3.675781 1.238281 -3.460938 1.15625 -3.234375 C 1.082031 -3.003906 1 -2.78125 0.90625 -2.5625 C 0.820312 -2.34375 0.734375 -2.140625 0.640625 -1.953125 C 0.554688 -1.765625 0.484375 -1.609375 0.421875 -1.484375 C 0.367188 -1.359375 0.359375 -1.238281 0.390625 -1.125 C 0.441406 -0.925781 0.519531 -0.75 0.625 -0.59375 C 0.738281 -0.445312 0.890625 -0.34375 1.078125 -0.28125 C 1.242188 -0.226562 1.421875 -0.21875 1.609375 -0.25 C 1.796875 -0.289062 1.976562 -0.351562 2.15625 -0.4375 C 2.34375 -0.519531 2.519531 -0.613281 2.6875 -0.71875 C 2.851562 -0.832031 3 -0.9375 3.125 -1.03125 C 3.257812 -1.132812 3.363281 -1.21875 3.4375 -1.28125 C 3.507812 -1.351562 3.546875 -1.394531 3.546875 -1.40625 C 3.578125 -1.425781 3.613281 -1.4375 3.65625 -1.4375 C 3.6875 -1.4375 3.71875 -1.425781 3.75 -1.40625 Z M 0.28125 -1.953125 C 0.28125 -1.921875 0.289062 -1.898438 0.3125 -1.890625 C 0.34375 -1.890625 0.363281 -1.898438 0.375 -1.921875 C 0.425781 -1.992188 0.476562 -2.101562 0.53125 -2.25 C 0.59375 -2.40625 0.65625 -2.578125 0.71875 -2.765625 C 0.789062 -2.953125 0.851562 -3.144531 0.90625 -3.34375 C 0.96875 -3.539062 1.015625 -3.722656 1.046875 -3.890625 C 1.078125 -4.066406 1.097656 -4.21875 1.109375 -4.34375 C 1.117188 -4.46875 1.101562 -4.550781 1.0625 -4.59375 C 1.03125 -4.625 1 -4.640625 0.96875 -4.640625 C 0.957031 -4.640625 0.945312 -4.640625 0.9375 -4.640625 C 0.882812 -4.609375 0.820312 -4.523438 0.75 -4.390625 C 0.6875 -4.265625 0.617188 -4.101562 0.546875 -3.90625 C 0.472656 -3.707031 0.410156 -3.488281 0.359375 -3.25 C 0.304688 -3.019531 0.269531 -2.789062 0.25 -2.5625 C 0.238281 -2.332031 0.25 -2.128906 0.28125 -1.953125 Z M 0.28125 -1.953125 "/></g></g><g style="fill:#000000;fill-opacity:1;"><g transform="translate(38.20494, 22.061183)"><path style="stroke:none" d="M 3.984375 -1.546875 C 4.015625 -1.515625 4.03125 -1.476562 4.03125 -1.4375 C 4.03125 -1.40625 4.015625 -1.375 3.984375 -1.34375 C 3.742188 -1.113281 3.492188 -0.929688 3.234375 -0.796875 C 2.972656 -0.660156 2.710938 -0.5625 2.453125 -0.5 C 2.191406 -0.445312 1.941406 -0.421875 1.703125 -0.421875 C 1.472656 -0.429688 1.269531 -0.457031 1.09375 -0.5 C 1.070312 -0.507812 1.050781 -0.503906 1.03125 -0.484375 C 0.988281 -0.367188 0.914062 -0.28125 0.8125 -0.21875 C 0.71875 -0.15625 0.613281 -0.117188 0.5 -0.109375 C 0.375 -0.109375 0.257812 -0.140625 0.15625 -0.203125 C 0.0195312 -0.265625 -0.0703125 -0.363281 -0.125 -0.5 C -0.1875 -0.644531 -0.191406 -0.789062 -0.140625 -0.9375 C -0.109375 -1.0625 -0.0546875 -1.179688 0.015625 -1.296875 C 0.0976562 -1.410156 0.191406 -1.503906 0.296875 -1.578125 C 0.398438 -1.648438 0.492188 -1.6875 0.578125 -1.6875 L 0.59375 -1.6875 C 0.632812 -1.6875 0.664062 -1.671875 0.6875 -1.640625 C 0.71875 -1.609375 0.734375 -1.570312 0.734375 -1.53125 C 0.734375 -1.5 0.71875 -1.46875 0.6875 -1.4375 C 0.65625 -1.414062 0.617188 -1.40625 0.578125 -1.40625 C 0.546875 -1.40625 0.5 -1.378906 0.4375 -1.328125 C 0.375 -1.273438 0.3125 -1.207031 0.25 -1.125 C 0.1875 -1.039062 0.144531 -0.953125 0.125 -0.859375 C 0.09375 -0.773438 0.09375 -0.691406 0.125 -0.609375 C 0.164062 -0.535156 0.222656 -0.484375 0.296875 -0.453125 C 0.359375 -0.398438 0.425781 -0.378906 0.5 -0.390625 C 0.582031 -0.398438 0.648438 -0.4375 0.703125 -0.5 C 0.722656 -0.519531 0.742188 -0.546875 0.765625 -0.578125 C 0.785156 -0.617188 0.78125 -0.648438 0.75 -0.671875 C 0.644531 -0.734375 0.582031 -0.828125 0.5625 -0.953125 C 0.539062 -1.066406 0.5625 -1.175781 0.625 -1.28125 C 0.707031 -1.425781 0.785156 -1.507812 0.859375 -1.53125 C 0.929688 -1.550781 0.992188 -1.546875 1.046875 -1.515625 C 1.117188 -1.472656 1.160156 -1.390625 1.171875 -1.265625 C 1.191406 -1.148438 1.191406 -1.03125 1.171875 -0.90625 C 1.171875 -0.863281 1.179688 -0.828125 1.203125 -0.796875 C 1.222656 -0.773438 1.25 -0.757812 1.28125 -0.75 C 1.582031 -0.695312 1.882812 -0.691406 2.1875 -0.734375 C 2.488281 -0.785156 2.773438 -0.878906 3.046875 -1.015625 C 3.316406 -1.148438 3.5625 -1.328125 3.78125 -1.546875 C 3.800781 -1.578125 3.832031 -1.59375 3.875 -1.59375 C 3.914062 -1.59375 3.953125 -1.578125 3.984375 -1.546875 Z M 0.890625 -0.9375 C 0.910156 -1.019531 0.914062 -1.109375 0.90625 -1.203125 C 0.90625 -1.191406 0.898438 -1.179688 0.890625 -1.171875 C 0.878906 -1.160156 0.867188 -1.148438 0.859375 -1.140625 C 0.835938 -1.109375 0.828125 -1.070312 0.828125 -1.03125 C 0.835938 -0.988281 0.859375 -0.957031 0.890625 -0.9375 Z M 0.890625 -0.9375 "/></g></g><g style="fill:#000000;fill-opacity:1;"><g transform="translate(41.972664, 22.061183)"><path style="stroke:none" d="M 5.375 -1.4375 C 5.40625 -1.414062 5.421875 -1.382812 5.421875 -1.34375 C 5.421875 -1.300781 5.40625 -1.269531 5.375 -1.25 C 5.101562 -1.019531 4.8125 -0.835938 4.5 -0.703125 C 4.1875 -0.578125 3.859375 -0.5 3.515625 -0.46875 C 3.171875 -0.445312 2.828125 -0.476562 2.484375 -0.5625 C 2.378906 -0.582031 2.269531 -0.617188 2.15625 -0.671875 C 2.101562 -0.691406 2.0625 -0.679688 2.03125 -0.640625 C 2 -0.609375 1.972656 -0.578125 1.953125 -0.546875 C 1.941406 -0.523438 1.925781 -0.503906 1.90625 -0.484375 C 1.78125 -0.335938 1.664062 -0.234375 1.5625 -0.171875 C 1.457031 -0.117188 1.363281 -0.09375 1.28125 -0.09375 C 1.207031 -0.09375 1.144531 -0.101562 1.09375 -0.125 C 1.0625 -0.144531 1.03125 -0.171875 1 -0.203125 C 0.957031 -0.242188 0.90625 -0.265625 0.84375 -0.265625 C 0.789062 -0.265625 0.738281 -0.25 0.6875 -0.21875 C 0.632812 -0.164062 0.582031 -0.128906 0.53125 -0.109375 C 0.46875 -0.0859375 0.410156 -0.078125 0.359375 -0.078125 C 0.285156 -0.078125 0.222656 -0.0859375 0.171875 -0.109375 C 0.0546875 -0.171875 -0.0195312 -0.265625 -0.0625 -0.390625 C -0.101562 -0.492188 -0.113281 -0.609375 -0.09375 -0.734375 C -0.0820312 -0.867188 -0.0546875 -0.992188 -0.015625 -1.109375 C 0.015625 -1.234375 0.046875 -1.335938 0.078125 -1.421875 C 0.117188 -1.515625 0.144531 -1.570312 0.15625 -1.59375 C 0.175781 -1.625 0.203125 -1.644531 0.234375 -1.65625 C 0.273438 -1.664062 0.3125 -1.664062 0.34375 -1.65625 C 0.382812 -1.632812 0.410156 -1.601562 0.421875 -1.5625 C 0.429688 -1.53125 0.429688 -1.5 0.421875 -1.46875 C 0.390625 -1.414062 0.359375 -1.347656 0.328125 -1.265625 C 0.296875 -1.179688 0.265625 -1.09375 0.234375 -1 C 0.210938 -0.90625 0.195312 -0.8125 0.1875 -0.71875 C 0.175781 -0.625 0.179688 -0.546875 0.203125 -0.484375 C 0.210938 -0.429688 0.242188 -0.394531 0.296875 -0.375 C 0.335938 -0.351562 0.378906 -0.351562 0.421875 -0.375 C 0.492188 -0.40625 0.566406 -0.46875 0.640625 -0.5625 C 0.710938 -0.664062 0.78125 -0.78125 0.84375 -0.90625 C 0.90625 -1.03125 0.953125 -1.140625 0.984375 -1.234375 C 1.003906 -1.265625 1.03125 -1.289062 1.0625 -1.3125 C 1.09375 -1.332031 1.128906 -1.332031 1.171875 -1.3125 C 1.210938 -1.300781 1.238281 -1.273438 1.25 -1.234375 C 1.269531 -1.203125 1.269531 -1.171875 1.25 -1.140625 C 1.21875 -1.046875 1.191406 -0.941406 1.171875 -0.828125 C 1.160156 -0.722656 1.15625 -0.628906 1.15625 -0.546875 C 1.164062 -0.460938 1.191406 -0.410156 1.234375 -0.390625 C 1.273438 -0.359375 1.34375 -0.375 1.4375 -0.4375 C 1.550781 -0.507812 1.644531 -0.597656 1.71875 -0.703125 C 1.789062 -0.785156 1.796875 -0.875 1.734375 -0.96875 C 1.691406 -1.019531 1.664062 -1.078125 1.65625 -1.140625 C 1.632812 -1.347656 1.789062 -1.53125 2.125 -1.6875 C 2.164062 -1.71875 2.210938 -1.726562 2.265625 -1.71875 C 2.316406 -1.707031 2.359375 -1.6875 2.390625 -1.65625 C 2.421875 -1.601562 2.429688 -1.53125 2.421875 -1.4375 C 2.410156 -1.351562 2.382812 -1.265625 2.34375 -1.171875 C 2.3125 -1.109375 2.3125 -1.039062 2.34375 -0.96875 C 2.375 -0.914062 2.421875 -0.878906 2.484375 -0.859375 C 2.515625 -0.847656 2.539062 -0.84375 2.5625 -0.84375 C 2.863281 -0.757812 3.171875 -0.726562 3.484375 -0.75 C 3.796875 -0.78125 4.09375 -0.851562 4.375 -0.96875 C 4.664062 -1.082031 4.9375 -1.242188 5.1875 -1.453125 C 5.207031 -1.484375 5.238281 -1.492188 5.28125 -1.484375 C 5.320312 -1.484375 5.351562 -1.46875 5.375 -1.4375 Z M 1.984375 -1.109375 C 2.023438 -1.191406 2.066406 -1.273438 2.109375 -1.359375 C 2.046875 -1.316406 2.003906 -1.28125 1.984375 -1.25 C 1.960938 -1.21875 1.953125 -1.191406 1.953125 -1.171875 C 1.953125 -1.148438 1.960938 -1.128906 1.984375 -1.109375 Z M 1.984375 -1.109375 "/></g></g><g style="fill:#000000;fill-opacity:1;"><g transform="translate(47.152602, 22.061183)"><path style="stroke:none" d="M 4.578125 -1.40625 C 4.597656 -1.375 4.609375 -1.335938 4.609375 -1.296875 C 4.609375 -1.253906 4.585938 -1.222656 4.546875 -1.203125 C 4.535156 -1.191406 4.472656 -1.140625 4.359375 -1.046875 C 4.242188 -0.960938 4.085938 -0.863281 3.890625 -0.75 C 3.691406 -0.632812 3.460938 -0.515625 3.203125 -0.390625 C 2.941406 -0.273438 2.664062 -0.179688 2.375 -0.109375 C 2.082031 -0.0351562 1.78125 0 1.46875 0 C 1.09375 0.0078125 0.734375 -0.0546875 0.390625 -0.203125 C 0.203125 -0.273438 0.0703125 -0.359375 0 -0.453125 C -0.0703125 -0.554688 -0.113281 -0.65625 -0.125 -0.75 C -0.132812 -0.851562 -0.132812 -0.941406 -0.125 -1.015625 C -0.09375 -1.148438 -0.03125 -1.28125 0.0625 -1.40625 C 0.15625 -1.53125 0.265625 -1.640625 0.390625 -1.734375 C 0.523438 -1.835938 0.65625 -1.914062 0.78125 -1.96875 C 0.914062 -2.03125 1.039062 -2.054688 1.15625 -2.046875 C 1.25 -2.046875 1.332031 -2.007812 1.40625 -1.9375 C 1.476562 -1.875 1.515625 -1.789062 1.515625 -1.6875 C 1.523438 -1.625 1.507812 -1.550781 1.46875 -1.46875 C 1.4375 -1.382812 1.359375 -1.296875 1.234375 -1.203125 C 0.921875 -1.015625 0.582031 -0.929688 0.21875 -0.953125 C 0.195312 -0.953125 0.175781 -0.945312 0.15625 -0.9375 C 0.144531 -0.925781 0.140625 -0.914062 0.140625 -0.90625 C 0.140625 -0.863281 0.144531 -0.816406 0.15625 -0.765625 C 0.164062 -0.722656 0.195312 -0.671875 0.25 -0.609375 C 0.300781 -0.554688 0.382812 -0.507812 0.5 -0.46875 C 0.75 -0.363281 1.003906 -0.300781 1.265625 -0.28125 C 1.523438 -0.269531 1.78125 -0.285156 2.03125 -0.328125 C 2.28125 -0.378906 2.519531 -0.445312 2.75 -0.53125 C 2.988281 -0.613281 3.203125 -0.707031 3.390625 -0.8125 C 3.585938 -0.914062 3.757812 -1.007812 3.90625 -1.09375 C 4.050781 -1.1875 4.164062 -1.265625 4.25 -1.328125 C 4.332031 -1.390625 4.375 -1.421875 4.375 -1.421875 C 4.40625 -1.453125 4.441406 -1.460938 4.484375 -1.453125 C 4.515625 -1.453125 4.546875 -1.4375 4.578125 -1.40625 Z M 0.34375 -1.28125 C 0.300781 -1.226562 0.300781 -1.195312 0.34375 -1.1875 C 0.394531 -1.1875 0.46875 -1.195312 0.5625 -1.21875 C 0.65625 -1.25 0.75 -1.285156 0.84375 -1.328125 C 0.9375 -1.367188 1.015625 -1.410156 1.078125 -1.453125 C 1.191406 -1.523438 1.242188 -1.59375 1.234375 -1.65625 C 1.234375 -1.695312 1.222656 -1.722656 1.203125 -1.734375 C 1.179688 -1.742188 1.160156 -1.753906 1.140625 -1.765625 C 1.015625 -1.765625 0.875 -1.71875 0.71875 -1.625 C 0.570312 -1.539062 0.445312 -1.425781 0.34375 -1.28125 Z M 0.34375 -1.28125 "/></g></g><g style="fill:#000000;fill-opacity:1;"><g transform="translate(51.520107, 22.061183)"><path style="stroke:none" d="M 4.703125 -1.4375 C 4.734375 -1.40625 4.75 -1.375 4.75 -1.34375 C 4.75 -1.300781 4.734375 -1.265625 4.703125 -1.234375 C 4.515625 -1.046875 4.300781 -0.882812 4.0625 -0.75 C 3.832031 -0.625 3.59375 -0.515625 3.34375 -0.421875 C 3.09375 -0.335938 2.847656 -0.273438 2.609375 -0.234375 C 2.378906 -0.191406 2.171875 -0.171875 1.984375 -0.171875 C 1.773438 -0.160156 1.570312 -0.195312 1.375 -0.28125 C 1.25 -0.351562 1.160156 -0.4375 1.109375 -0.53125 C 1.066406 -0.625 1.046875 -0.71875 1.046875 -0.8125 C 1.054688 -0.90625 1.078125 -0.992188 1.109375 -1.078125 C 1.148438 -1.171875 1.1875 -1.25 1.21875 -1.3125 C 1.226562 -1.320312 1.222656 -1.332031 1.203125 -1.34375 C 1.191406 -1.351562 1.171875 -1.347656 1.140625 -1.328125 C 0.929688 -1.210938 0.710938 -1.160156 0.484375 -1.171875 C 0.390625 -1.171875 0.289062 -1.191406 0.1875 -1.234375 C 0.15625 -1.222656 0.117188 -1.226562 0.078125 -1.25 C 0.0234375 -1.28125 0 -1.328125 0 -1.390625 C -0.0507812 -1.453125 -0.0859375 -1.523438 -0.109375 -1.609375 C -0.148438 -1.765625 -0.144531 -1.914062 -0.09375 -2.0625 C -0.0390625 -2.207031 0.046875 -2.328125 0.171875 -2.421875 C 0.316406 -2.503906 0.4375 -2.503906 0.53125 -2.421875 C 0.539062 -2.410156 0.550781 -2.390625 0.5625 -2.359375 C 0.582031 -2.335938 0.59375 -2.296875 0.59375 -2.234375 C 0.601562 -2.179688 0.59375 -2.101562 0.5625 -2 C 0.539062 -1.894531 0.488281 -1.753906 0.40625 -1.578125 C 0.394531 -1.566406 0.398438 -1.546875 0.421875 -1.515625 C 0.441406 -1.484375 0.460938 -1.46875 0.484375 -1.46875 C 0.703125 -1.46875 0.898438 -1.519531 1.078125 -1.625 C 1.140625 -1.65625 1.207031 -1.679688 1.28125 -1.703125 C 1.351562 -1.722656 1.425781 -1.703125 1.5 -1.640625 C 1.570312 -1.585938 1.59375 -1.515625 1.5625 -1.421875 C 1.539062 -1.335938 1.515625 -1.257812 1.484375 -1.1875 C 1.398438 -1.007812 1.351562 -0.875 1.34375 -0.78125 C 1.34375 -0.6875 1.40625 -0.601562 1.53125 -0.53125 C 1.59375 -0.488281 1.707031 -0.460938 1.875 -0.453125 C 2.039062 -0.441406 2.234375 -0.453125 2.453125 -0.484375 C 2.671875 -0.523438 2.898438 -0.582031 3.140625 -0.65625 C 3.390625 -0.738281 3.628906 -0.84375 3.859375 -0.96875 C 4.097656 -1.09375 4.3125 -1.25 4.5 -1.4375 C 4.53125 -1.46875 4.566406 -1.484375 4.609375 -1.484375 C 4.640625 -1.484375 4.671875 -1.46875 4.703125 -1.4375 Z M 0.15625 -1.734375 C 0.21875 -1.867188 0.269531 -2.015625 0.3125 -2.171875 C 0.175781 -2.046875 0.125 -1.898438 0.15625 -1.734375 Z M 0.15625 -1.734375 "/></g></g><g style="fill:#000000;fill-opacity:1;"><g transform="translate(55.99121, 22.061183)"><path style="stroke:none" d="M 3.75 -1.515625 C 3.769531 -1.484375 3.78125 -1.445312 3.78125 -1.40625 C 3.78125 -1.375 3.769531 -1.34375 3.75 -1.3125 C 3.59375 -1.15625 3.410156 -1.007812 3.203125 -0.875 C 3.003906 -0.738281 2.785156 -0.613281 2.546875 -0.5 C 2.304688 -0.382812 2.0625 -0.296875 1.8125 -0.234375 C 1.5625 -0.171875 1.320312 -0.140625 1.09375 -0.140625 C 1 -0.140625 0.910156 -0.144531 0.828125 -0.15625 C 0.640625 -0.164062 0.46875 -0.21875 0.3125 -0.3125 C 0.164062 -0.414062 0.046875 -0.546875 -0.046875 -0.703125 C -0.0664062 -0.734375 -0.0703125 -0.765625 -0.0625 -0.796875 C -0.0507812 -0.835938 -0.03125 -0.867188 0 -0.890625 C 0.03125 -0.910156 0.0664062 -0.914062 0.109375 -0.90625 C 0.148438 -0.894531 0.179688 -0.875 0.203125 -0.84375 C 0.285156 -0.738281 0.382812 -0.660156 0.5 -0.609375 C 0.613281 -0.554688 0.734375 -0.53125 0.859375 -0.53125 C 0.984375 -0.53125 1.109375 -0.5625 1.234375 -0.625 C 1.304688 -0.664062 1.347656 -0.726562 1.359375 -0.8125 C 1.378906 -0.90625 1.359375 -0.984375 1.296875 -1.046875 C 1.234375 -1.109375 1.164062 -1.164062 1.09375 -1.21875 C 0.9375 -1.3125 0.804688 -1.425781 0.703125 -1.5625 C 0.691406 -1.59375 0.671875 -1.609375 0.640625 -1.609375 C 0.609375 -1.609375 0.585938 -1.601562 0.578125 -1.59375 L 0.15625 -1.1875 C 0.113281 -1.15625 0.0664062 -1.144531 0.015625 -1.15625 C -0.0351562 -1.175781 -0.0664062 -1.210938 -0.078125 -1.265625 C -0.0976562 -1.316406 -0.0820312 -1.363281 -0.03125 -1.40625 L 0.796875 -2.1875 C 0.890625 -2.300781 1 -2.398438 1.125 -2.484375 C 1.144531 -2.515625 1.175781 -2.523438 1.21875 -2.515625 C 1.257812 -2.515625 1.289062 -2.5 1.3125 -2.46875 C 1.34375 -2.4375 1.351562 -2.398438 1.34375 -2.359375 C 1.34375 -2.328125 1.328125 -2.300781 1.296875 -2.28125 L 1 -2 C 0.957031 -1.9375 0.929688 -1.875 0.921875 -1.8125 C 0.921875 -1.738281 0.957031 -1.671875 1.03125 -1.609375 C 1.101562 -1.554688 1.175781 -1.503906 1.25 -1.453125 C 1.363281 -1.390625 1.460938 -1.304688 1.546875 -1.203125 C 1.609375 -1.109375 1.640625 -1.007812 1.640625 -0.90625 C 1.648438 -0.800781 1.632812 -0.703125 1.59375 -0.609375 C 1.570312 -0.578125 1.570312 -0.550781 1.59375 -0.53125 C 1.613281 -0.5 1.640625 -0.488281 1.671875 -0.5 C 2.390625 -0.664062 3.015625 -1.003906 3.546875 -1.515625 C 3.566406 -1.535156 3.597656 -1.546875 3.640625 -1.546875 C 3.679688 -1.546875 3.71875 -1.535156 3.75 -1.515625 Z M 3.75 -1.515625 "/></g></g><g clip-rule="nonzero" clip-path="url(#08cbbba890)"><path style=" stroke:none;fill-rule:nonzero;fill:#000000;fill-opacity:1;" d="M 5.261719 16.398438 C 5.105469 16.367188 4.992188 16.1875 5.050781 16.019531 L 5.054688 16.003906 L 5.074219 15.992188 C 5.203125 15.925781 5.367188 15.941406 5.484375 16.046875 L 5.488281 16.050781 L 5.492188 16.0625 C 5.609375 16.246094 5.546875 16.507812 5.347656 16.625 C 5.144531 16.738281 4.878906 16.664062 4.761719 16.445312 L 4.75 16.425781 L 4.75 16.386719 C 4.757812 16.160156 4.855469 15.941406 5.015625 15.777344 L 5.078125 15.710938 L 5.164062 15.746094 C 5.484375 15.886719 5.746094 16.152344 5.902344 16.449219 C 6.066406 16.746094 6.152344 17.066406 6.207031 17.378906 C 6.316406 18.015625 6.332031 18.632812 6.480469 19.242188 C 6.757812 20.46875 7.363281 21.582031 7.855469 22.742188 C 8.339844 23.898438 8.75 25.148438 8.707031 26.445312 C 8.664062 27.734375 8.3125 28.964844 7.898438 30.152344 L 7.867188 30.144531 C 8.089844 28.90625 8.375 27.675781 8.363281 26.445312 C 8.359375 25.214844 8.027344 24.011719 7.597656 22.839844 C 7.1875 21.65625 6.722656 20.484375 6.355469 19.277344 C 6.160156 18.671875 6.070312 18.035156 5.929688 17.4375 C 5.792969 16.847656 5.574219 16.246094 5.050781 15.996094 L 5.203125 15.96875 C 5.085938 16.078125 5.007812 16.238281 4.988281 16.402344 L 4.976562 16.34375 C 5.007812 16.4375 5.160156 16.503906 5.257812 16.453125 C 5.363281 16.414062 5.421875 16.246094 5.367188 16.136719 L 5.375 16.148438 C 5.324219 16.078125 5.207031 16.046875 5.117188 16.082031 L 5.140625 16.054688 C 5.089844 16.15625 5.144531 16.316406 5.269531 16.363281 L 5.261719 16.398438 "/></g><g clip-rule="nonzero" clip-path="url(#74fe8e1bd5)"><path style=" stroke:none;fill-rule:nonzero;fill:#000000;fill-opacity:1;" d="M 4.054688 14.6875 C 3.9375 14.496094 3.828125 14.3125 3.695312 14.171875 C 3.558594 14.03125 3.402344 13.949219 3.230469 13.910156 C 3.070312 13.863281 2.859375 13.910156 2.746094 14.085938 C 2.628906 14.257812 2.636719 14.484375 2.714844 14.671875 C 2.890625 15.039062 3.175781 15.347656 3.496094 15.585938 C 3.8125 15.839844 4.175781 16.027344 4.601562 16.164062 L 4.597656 16.199219 C 4.148438 16.277344 3.664062 16.144531 3.28125 15.878906 C 3.089844 15.742188 2.929688 15.5625 2.796875 15.367188 C 2.664062 15.175781 2.566406 14.953125 2.535156 14.71875 C 2.503906 14.480469 2.542969 14.238281 2.652344 14.03125 C 2.703125 13.929688 2.777344 13.824219 2.882812 13.75 C 2.988281 13.675781 3.125 13.628906 3.257812 13.632812 C 3.527344 13.636719 3.765625 13.804688 3.898438 14.011719 C 4.035156 14.21875 4.085938 14.449219 4.089844 14.675781 L 4.054688 14.6875 "/></g><path style=" stroke:none;fill-rule:nonzero;fill:#000000;fill-opacity:1;" d="M 5.546875 16.105469 C 5.425781 15.789062 5.367188 15.453125 5.359375 15.113281 C 5.355469 14.765625 5.378906 14.484375 5.242188 14.230469 C 5.097656 13.964844 4.894531 13.6875 4.652344 13.472656 C 4.410156 13.257812 4.121094 13.097656 3.824219 12.972656 L 3.988281 12.902344 C 3.902344 13.429688 4.136719 13.980469 4.242188 14.554688 C 4.300781 14.839844 4.34375 15.140625 4.394531 15.410156 C 4.449219 15.679688 4.53125 15.957031 4.796875 16.085938 L 4.785156 16.121094 C 4.632812 16.109375 4.480469 16.015625 4.378906 15.894531 C 4.277344 15.769531 4.207031 15.628906 4.148438 15.484375 C 4.042969 15.191406 3.972656 14.921875 3.898438 14.636719 C 3.824219 14.351562 3.765625 14.070312 3.71875 13.769531 C 3.675781 13.472656 3.65625 13.144531 3.769531 12.84375 L 3.824219 12.695312 L 3.933594 12.769531 C 4.214844 12.964844 4.46875 13.183594 4.71875 13.398438 C 4.96875 13.621094 5.234375 13.8125 5.460938 14.089844 C 5.578125 14.230469 5.648438 14.433594 5.65625 14.613281 C 5.660156 14.796875 5.644531 14.964844 5.628906 15.121094 C 5.601562 15.441406 5.585938 15.765625 5.578125 16.097656 L 5.546875 16.105469 "/><path style=" stroke:none;fill-rule:nonzero;fill:#000000;fill-opacity:1;" d="M 4.945312 15.769531 C 4.84375 15.652344 4.816406 15.574219 4.835938 15.484375 C 4.855469 15.4375 4.902344 15.386719 4.90625 15.339844 C 4.910156 15.289062 4.882812 15.246094 4.839844 15.207031 C 4.753906 15.136719 4.707031 15.066406 4.667969 14.988281 C 4.640625 14.902344 4.632812 14.8125 4.65625 14.667969 L 4.683594 14.648438 C 4.832031 14.660156 4.925781 14.738281 4.988281 14.828125 C 5.035156 14.929688 5.058594 15.042969 5.019531 15.160156 C 5.003906 15.21875 4.996094 15.273438 5.015625 15.320312 C 5.03125 15.367188 5.09375 15.414062 5.117188 15.46875 C 5.148438 15.574219 5.109375 15.691406 4.980469 15.773438 L 4.945312 15.769531 "/><path style=" stroke:none;fill-rule:nonzero;fill:#000000;fill-opacity:1;" d="M 3.386719 14.859375 C 3.539062 14.929688 3.617188 15.003906 3.660156 15.113281 C 3.671875 15.171875 3.664062 15.25 3.699219 15.300781 C 3.726562 15.355469 3.785156 15.386719 3.847656 15.402344 C 3.976562 15.433594 4.074219 15.484375 4.167969 15.539062 C 4.257812 15.605469 4.335938 15.6875 4.417969 15.828125 L 4.410156 15.859375 C 4.257812 15.925781 4.113281 15.902344 3.988281 15.847656 C 3.871094 15.777344 3.769531 15.679688 3.71875 15.539062 C 3.695312 15.472656 3.664062 15.414062 3.613281 15.375 C 3.566406 15.332031 3.484375 15.316406 3.425781 15.273438 C 3.328125 15.175781 3.292969 15.03125 3.355469 14.871094 L 3.386719 14.859375 "/><g clip-rule="nonzero" clip-path="url(#3f0fb55694)"><path style=" stroke:none;fill-rule:nonzero;fill:#000000;fill-opacity:1;" d="M 10.03125 3.921875 C 10.316406 3.683594 10.632812 3.476562 10.972656 3.316406 C 11.140625 3.234375 11.316406 3.164062 11.496094 3.105469 C 11.664062 3.058594 11.867188 2.960938 12.082031 3.074219 C 12.183594 3.132812 12.246094 3.253906 12.242188 3.363281 C 12.242188 3.472656 12.210938 3.574219 12.171875 3.664062 C 12.089844 3.851562 11.976562 3.992188 11.878906 4.148438 L 11.269531 5.085938 L 10.054688 6.953125 C 9.851562 7.257812 9.648438 7.582031 9.382812 7.867188 C 9.128906 8.152344 8.777344 8.40625 8.355469 8.453125 L 8.160156 8.476562 L 8.207031 8.28125 C 8.574219 6.871094 9 5.472656 9.519531 4.109375 C 9.640625 3.769531 9.792969 3.417969 9.902344 3.097656 C 9.953125 2.9375 9.976562 2.769531 9.933594 2.648438 C 9.894531 2.523438 9.78125 2.445312 9.632812 2.4375 C 9.332031 2.417969 9.015625 2.621094 8.742188 2.835938 C 8.46875 3.054688 8.21875 3.320312 7.945312 3.566406 C 7.671875 3.8125 7.363281 4.054688 6.984375 4.148438 C 6.796875 4.199219 6.59375 4.199219 6.410156 4.167969 C 6.222656 4.136719 6.046875 4.085938 5.875 4.042969 C 5.703125 4.003906 5.527344 3.980469 5.359375 4.007812 C 5.195312 4.035156 5.042969 4.121094 4.925781 4.246094 C 4.6875 4.496094 4.605469 4.867188 4.667969 5.210938 C 4.722656 5.558594 4.890625 5.882812 5.089844 6.179688 C 5.292969 6.476562 5.535156 6.746094 5.800781 6.988281 C 6.335938 7.476562 6.949219 7.863281 7.566406 8.25 L 7.492188 8.351562 C 6.960938 7.964844 6.417969 7.589844 5.867188 7.226562 C 5.589844 7.050781 5.3125 6.871094 5.03125 6.699219 C 4.75 6.53125 4.472656 6.347656 4.183594 6.230469 C 3.894531 6.113281 3.578125 6.085938 3.316406 6.222656 C 3.050781 6.347656 2.925781 6.636719 3.027344 6.902344 C 3.121094 7.175781 3.367188 7.371094 3.652344 7.492188 C 3.9375 7.613281 4.265625 7.699219 4.578125 7.800781 C 5.207031 7.992188 5.832031 8.1875 6.472656 8.328125 C 6.789062 8.398438 7.101562 8.460938 7.375 8.394531 C 7.445312 8.378906 7.507812 8.359375 7.566406 8.324219 C 7.632812 8.289062 7.703125 8.242188 7.796875 8.199219 C 7.886719 8.160156 8.046875 8.121094 8.1875 8.203125 C 8.324219 8.292969 8.371094 8.429688 8.378906 8.550781 C 8.390625 8.816406 8.203125 9.011719 7.996094 9.09375 C 7.890625 9.132812 7.765625 9.144531 7.640625 9.105469 C 7.519531 9.070312 7.414062 8.976562 7.359375 8.867188 C 7.25 8.648438 7.273438 8.402344 7.421875 8.207031 C 7.59375 8 7.886719 7.988281 8.082031 8.074219 C 8.277344 8.152344 8.4375 8.328125 8.515625 8.503906 C 8.597656 8.683594 8.625 8.867188 8.652344 9.03125 L 8.792969 10.015625 L 9.351562 13.933594 C 9.441406 14.585938 9.535156 15.238281 9.609375 15.902344 C 9.6875 16.5625 9.699219 17.25 9.585938 17.910156 C 9.484375 18.574219 9.308594 19.210938 9.164062 19.855469 C 9.019531 20.496094 8.894531 21.140625 8.789062 21.792969 C 8.582031 23.089844 8.421875 24.402344 8.359375 25.71875 L 8.324219 25.71875 C 8.34375 24.398438 8.425781 23.074219 8.617188 21.765625 C 8.710938 21.109375 8.820312 20.457031 8.953125 19.808594 C 9.082031 19.15625 9.246094 18.519531 9.332031 17.875 C 9.527344 16.585938 9.191406 15.289062 9.019531 13.984375 L 8.441406 10.0625 L 8.300781 9.085938 C 8.253906 8.765625 8.167969 8.492188 7.945312 8.402344 C 7.839844 8.355469 7.738281 8.375 7.691406 8.433594 C 7.636719 8.492188 7.621094 8.628906 7.664062 8.707031 C 7.699219 8.78125 7.777344 8.804688 7.878906 8.773438 C 7.976562 8.738281 8.050781 8.640625 8.042969 8.570312 C 8.042969 8.527344 8.019531 8.492188 8.015625 8.492188 C 8.007812 8.488281 7.988281 8.480469 7.929688 8.503906 C 7.871094 8.53125 7.804688 8.570312 7.722656 8.613281 C 7.636719 8.660156 7.542969 8.695312 7.449219 8.714844 C 7.074219 8.796875 6.722656 8.710938 6.398438 8.636719 C 5.75 8.484375 5.113281 8.289062 4.488281 8.078125 C 4.175781 7.96875 3.859375 7.882812 3.539062 7.738281 C 3.226562 7.601562 2.90625 7.351562 2.789062 6.984375 C 2.730469 6.804688 2.726562 6.59375 2.808594 6.410156 C 2.890625 6.230469 3.046875 6.09375 3.214844 6.015625 C 3.550781 5.84375 3.953125 5.898438 4.261719 6.035156 C 4.585938 6.171875 4.855469 6.363281 5.132812 6.539062 C 5.414062 6.71875 5.6875 6.902344 5.960938 7.085938 C 6.507812 7.460938 7.042969 7.847656 7.570312 8.25 L 7.496094 8.355469 C 6.886719 7.964844 6.265625 7.566406 5.726562 7.070312 C 5.457031 6.820312 5.214844 6.542969 5.003906 6.238281 C 4.796875 5.9375 4.621094 5.601562 4.554688 5.230469 C 4.484375 4.859375 4.570312 4.445312 4.832031 4.160156 C 4.964844 4.015625 5.144531 3.910156 5.335938 3.878906 C 5.53125 3.84375 5.722656 3.871094 5.902344 3.90625 C 6.265625 3.984375 6.609375 4.082031 6.941406 3.980469 C 7.269531 3.890625 7.550781 3.664062 7.808594 3.417969 C 8.066406 3.171875 8.3125 2.898438 8.597656 2.65625 C 8.742188 2.539062 8.890625 2.421875 9.066406 2.332031 C 9.234375 2.234375 9.433594 2.171875 9.652344 2.179688 C 9.867188 2.179688 10.117188 2.324219 10.191406 2.554688 C 10.269531 2.78125 10.222656 2.992188 10.171875 3.175781 C 10.046875 3.546875 9.914062 3.863281 9.789062 4.210938 C 9.296875 5.570312 8.851562 6.953125 8.476562 8.351562 L 8.328125 8.179688 C 8.652344 8.144531 8.953125 7.945312 9.191406 7.6875 C 9.4375 7.425781 9.632812 7.121094 9.84375 6.8125 L 11.105469 4.972656 L 11.738281 4.058594 C 11.835938 3.902344 11.957031 3.753906 12.035156 3.601562 C 12.113281 3.449219 12.140625 3.261719 12.015625 3.183594 C 11.890625 3.101562 11.699219 3.15625 11.523438 3.207031 C 11.347656 3.257812 11.175781 3.316406 11.003906 3.390625 C 10.667969 3.535156 10.347656 3.722656 10.050781 3.949219 L 10.03125 3.921875 "/></g><path style=" stroke:none;fill-rule:nonzero;fill:#000000;fill-opacity:1;" d="M 5.523438 7.789062 C 5.726562 7.742188 5.898438 7.765625 6.058594 7.84375 C 6.136719 7.890625 6.199219 7.96875 6.28125 8.003906 C 6.363281 8.042969 6.453125 8.046875 6.542969 8.042969 C 6.730469 8.027344 6.902344 8.054688 7.070312 8.09375 C 7.234375 8.152344 7.394531 8.230469 7.542969 8.371094 L 7.535156 8.40625 C 7.34375 8.472656 7.160156 8.472656 6.984375 8.445312 C 6.8125 8.398438 6.644531 8.335938 6.492188 8.222656 C 6.414062 8.167969 6.339844 8.121094 6.25 8.109375 C 6.164062 8.09375 6.0625 8.117188 5.972656 8.113281 C 5.792969 8.082031 5.636719 7.988281 5.511719 7.820312 L 5.523438 7.789062 "/><path style=" stroke:none;fill-rule:nonzero;fill:#000000;fill-opacity:1;" d="M 8.042969 8.433594 C 8.125 8.21875 8.246094 8.066406 8.402344 7.945312 C 8.484375 7.890625 8.59375 7.855469 8.667969 7.789062 C 8.742188 7.722656 8.789062 7.632812 8.828125 7.535156 C 8.902344 7.339844 8.996094 7.171875 9.097656 7.003906 C 9.210938 6.847656 9.339844 6.699219 9.523438 6.566406 L 9.554688 6.578125 C 9.566406 6.808594 9.5 7.011719 9.402344 7.195312 C 9.292969 7.371094 9.15625 7.53125 8.972656 7.652344 C 8.886719 7.714844 8.808594 7.777344 8.75 7.859375 C 8.691406 7.945312 8.660156 8.054688 8.601562 8.144531 C 8.472656 8.308594 8.292969 8.425781 8.0625 8.457031 L 8.042969 8.433594 "/><path style=" stroke:none;fill-rule:nonzero;fill:#000000;fill-opacity:1;" d="M 6.921875 6.886719 C 7.058594 6.976562 7.125 7.070312 7.140625 7.1875 C 7.140625 7.246094 7.113281 7.324219 7.125 7.382812 C 7.140625 7.441406 7.183594 7.484375 7.238281 7.523438 C 7.351562 7.59375 7.425781 7.679688 7.492188 7.769531 C 7.546875 7.871094 7.585938 7.980469 7.585938 8.144531 L 7.5625 8.167969 C 7.398438 8.152344 7.285156 8.074219 7.199219 7.980469 C 7.125 7.875 7.074219 7.75 7.074219 7.609375 C 7.070312 7.539062 7.0625 7.476562 7.027344 7.425781 C 6.992188 7.375 6.917969 7.335938 6.875 7.285156 C 6.808594 7.175781 6.800781 7.035156 6.886719 6.894531 L 6.921875 6.886719 "/><path style=" stroke:none;fill-rule:nonzero;fill:#000000;fill-opacity:1;" d="M 7.984375 8.269531 C 7.933594 8.09375 7.933594 7.964844 7.980469 7.839844 C 8.015625 7.777344 8.078125 7.71875 8.09375 7.648438 C 8.113281 7.582031 8.09375 7.507812 8.0625 7.441406 C 7.992188 7.304688 7.960938 7.179688 7.929688 7.054688 C 7.917969 6.921875 7.914062 6.789062 7.957031 6.613281 L 7.988281 6.601562 C 8.148438 6.691406 8.234375 6.828125 8.28125 6.976562 C 8.3125 7.125 8.3125 7.289062 8.246094 7.4375 C 8.21875 7.511719 8.195312 7.585938 8.203125 7.65625 C 8.207031 7.730469 8.253906 7.8125 8.257812 7.890625 C 8.257812 8.042969 8.179688 8.191406 8.015625 8.28125 L 7.984375 8.269531 "/><g clip-rule="nonzero" clip-path="url(#afd6b28b83)"><path style=" stroke:none;fill-rule:nonzero;fill:#000000;fill-opacity:1;" d="M 15.335938 12.003906 C 15.210938 11.527344 15.03125 11.042969 14.667969 10.726562 C 14.484375 10.574219 14.269531 10.464844 14.039062 10.417969 C 13.816406 10.367188 13.578125 10.402344 13.4375 10.554688 C 13.289062 10.703125 13.226562 10.941406 13.144531 11.175781 C 13.0625 11.414062 12.988281 11.644531 12.929688 11.882812 C 12.816406 12.351562 12.785156 12.84375 12.964844 13.265625 L 12.746094 13.199219 C 13.441406 12.730469 14.1875 12.339844 14.960938 12.019531 C 15.160156 11.945312 15.34375 11.859375 15.566406 11.804688 C 15.679688 11.78125 15.796875 11.769531 15.925781 11.792969 C 16.050781 11.816406 16.175781 11.894531 16.246094 12.003906 C 16.492188 12.4375 16.363281 12.929688 16.117188 13.277344 C 15.871094 13.640625 15.492188 13.882812 15.09375 14.019531 C 14.695312 14.164062 14.285156 14.234375 13.871094 14.3125 C 13.664062 14.339844 13.449219 14.355469 13.234375 14.316406 C 13.023438 14.285156 12.796875 14.164062 12.695312 13.953125 C 12.585938 13.742188 12.605469 13.511719 12.617188 13.304688 C 12.628906 13.097656 12.644531 12.890625 12.664062 12.683594 C 12.707031 12.269531 12.761719 11.855469 12.835938 11.445312 C 12.90625 11.039062 12.988281 10.628906 12.851562 10.285156 C 12.785156 10.117188 12.671875 9.96875 12.527344 9.894531 C 12.382812 9.816406 12.210938 9.824219 12.046875 9.886719 C 11.714844 10.011719 11.519531 10.355469 11.460938 10.734375 C 11.351562 11.511719 11.496094 12.339844 11.785156 13.074219 C 11.933594 13.441406 12.140625 13.8125 12.363281 14.105469 C 12.414062 14.160156 12.4375 14.164062 12.488281 14.164062 C 12.542969 14.160156 12.605469 14.125 12.648438 14.078125 C 12.730469 13.980469 12.753906 13.796875 12.738281 13.609375 L 12.894531 13.765625 C 12.625 13.738281 12.375 13.742188 12.261719 13.890625 C 12.203125 13.964844 12.183594 14.039062 12.21875 14.105469 C 12.238281 14.148438 12.285156 14.203125 12.328125 14.28125 C 12.371094 14.363281 12.390625 14.488281 12.367188 14.578125 C 12.320312 14.769531 12.214844 14.878906 12.144531 14.992188 L 11.902344 15.328125 L 11.421875 16 C 11.097656 16.445312 10.769531 16.890625 10.429688 17.328125 C 10.085938 17.761719 9.730469 18.1875 9.367188 18.601562 L 9.34375 18.582031 C 10.007812 17.699219 10.625 16.789062 11.230469 15.867188 L 11.683594 15.179688 L 11.914062 14.832031 C 11.992188 14.714844 12.066406 14.609375 12.082031 14.523438 C 12.089844 14.480469 12.082031 14.460938 12.0625 14.421875 C 12.042969 14.378906 11.996094 14.328125 11.949219 14.246094 C 11.902344 14.164062 11.882812 14.046875 11.898438 13.949219 C 11.917969 13.851562 11.960938 13.765625 12.015625 13.691406 C 12.125 13.546875 12.308594 13.460938 12.46875 13.4375 C 12.628906 13.410156 12.78125 13.417969 12.917969 13.429688 L 13.066406 13.4375 L 13.074219 13.582031 C 13.089844 13.800781 13.09375 14.070312 12.90625 14.300781 C 12.8125 14.410156 12.683594 14.484375 12.53125 14.503906 C 12.375 14.535156 12.1875 14.441406 12.105469 14.335938 C 11.820312 13.972656 11.625 13.609375 11.457031 13.210938 C 11.132812 12.414062 11.007812 11.542969 11.140625 10.675781 C 11.179688 10.457031 11.253906 10.234375 11.386719 10.039062 C 11.519531 9.839844 11.710938 9.683594 11.941406 9.597656 C 12.164062 9.511719 12.441406 9.511719 12.664062 9.640625 C 12.886719 9.761719 13.03125 9.976562 13.105469 10.191406 C 13.265625 10.644531 13.144531 11.09375 13.058594 11.488281 C 12.96875 11.890625 12.894531 12.296875 12.835938 12.703125 C 12.808594 12.910156 12.785156 13.113281 12.765625 13.320312 C 12.746094 13.523438 12.726562 13.726562 12.804688 13.894531 C 12.886719 14.066406 13.066406 14.167969 13.257812 14.203125 C 13.449219 14.242188 13.65625 14.230469 13.859375 14.207031 C 14.261719 14.140625 14.671875 14.054688 15.050781 13.910156 C 15.429688 13.765625 15.785156 13.539062 15.992188 13.195312 C 16.097656 13.03125 16.167969 12.84375 16.1875 12.652344 C 16.203125 12.46875 16.171875 12.257812 16.078125 12.125 C 15.984375 11.996094 15.804688 11.988281 15.625 12.039062 C 15.445312 12.085938 15.253906 12.183594 15.066406 12.265625 C 14.316406 12.597656 13.597656 13 12.910156 13.445312 L 12.757812 13.542969 L 12.691406 13.378906 C 12.488281 12.863281 12.542969 12.308594 12.671875 11.816406 C 12.738281 11.570312 12.816406 11.328125 12.90625 11.09375 C 12.996094 10.867188 13.070312 10.601562 13.285156 10.394531 C 13.503906 10.183594 13.832031 10.167969 14.082031 10.238281 C 14.339844 10.300781 14.578125 10.429688 14.765625 10.617188 C 15.140625 10.996094 15.292969 11.507812 15.371094 11.996094 L 15.335938 12.003906 "/></g><path style=" stroke:none;fill-rule:nonzero;fill:#000000;fill-opacity:1;" d="M 12.128906 11.980469 C 12.195312 12.15625 12.199219 12.292969 12.15625 12.425781 C 12.128906 12.496094 12.070312 12.5625 12.058594 12.636719 C 12.042969 12.710938 12.066406 12.785156 12.105469 12.851562 C 12.183594 12.988281 12.226562 13.117188 12.265625 13.246094 C 12.277344 13.316406 12.292969 13.382812 12.292969 13.460938 C 12.292969 13.492188 12.300781 13.542969 12.292969 13.570312 C 12.289062 13.582031 12.273438 13.574219 12.25 13.589844 C 12.21875 13.605469 12.230469 13.625 12.234375 13.621094 C 12.234375 13.621094 12.261719 13.632812 12.265625 13.621094 L 12.246094 13.589844 C 12.25 13.582031 12.277344 13.578125 12.289062 13.589844 C 12.300781 13.597656 12.308594 13.609375 12.308594 13.617188 C 12.316406 13.636719 12.320312 13.675781 12.269531 13.695312 C 12.203125 13.714844 12.160156 13.671875 12.140625 13.65625 C 12.101562 13.617188 12.078125 13.59375 12.046875 13.5625 C 11.992188 13.496094 11.953125 13.425781 11.921875 13.351562 C 11.878906 13.195312 11.867188 13.027344 11.921875 12.867188 C 11.941406 12.785156 11.960938 12.710938 11.949219 12.632812 C 11.9375 12.558594 11.890625 12.476562 11.878906 12.394531 C 11.871094 12.234375 11.941406 12.074219 12.097656 11.96875 L 12.128906 11.980469 "/><path style=" stroke:none;fill-rule:nonzero;fill:#000000;fill-opacity:1;" d="M 12.960938 13.835938 C 13.117188 13.734375 13.261719 13.714844 13.402344 13.746094 C 13.472656 13.765625 13.542969 13.820312 13.617188 13.828125 C 13.691406 13.839844 13.761719 13.8125 13.824219 13.773438 C 13.953125 13.683594 14.070312 13.632812 14.183594 13.578125 C 14.304688 13.535156 14.425781 13.503906 14.601562 13.46875 L 14.625 13.492188 C 14.609375 13.679688 14.480469 13.820312 14.335938 13.902344 C 14.183594 13.972656 14.015625 14 13.851562 13.953125 C 13.769531 13.9375 13.695312 13.921875 13.621094 13.9375 C 13.546875 13.953125 13.472656 14.007812 13.394531 14.023438 C 13.238281 14.046875 13.09375 14 12.957031 13.871094 L 12.960938 13.835938 "/><path style=" stroke:none;fill-rule:nonzero;fill:#000000;fill-opacity:1;" d="M 13.496094 12.136719 C 13.480469 12.289062 13.445312 12.367188 13.363281 12.417969 C 13.320312 12.4375 13.246094 12.441406 13.210938 12.476562 C 13.171875 12.507812 13.164062 12.5625 13.167969 12.617188 C 13.179688 12.734375 13.167969 12.820312 13.148438 12.90625 C 13.109375 12.984375 13.058594 13.0625 12.945312 13.160156 L 12.914062 13.160156 C 12.804688 13.054688 12.785156 12.925781 12.796875 12.8125 C 12.832031 12.699219 12.890625 12.59375 13.003906 12.53125 C 13.054688 12.496094 13.101562 12.464844 13.121094 12.414062 C 13.140625 12.363281 13.132812 12.289062 13.152344 12.230469 C 13.207031 12.128906 13.324219 12.070312 13.476562 12.105469 L 13.496094 12.136719 "/></g></svg>